{
  "accessors": [
    {
      "bufferView": 2,
      "componentType": 5126,
      "count": 24,
      "max": [
        780.287109375,
        2152.745361328125,
        337.4104309082031
      ],
      "min": [
        -780.287109375,
        -517.50537109375,
        337.4104309082031
      ],
      "type": "VEC3"
    },
    {
      "bufferView": 2,
      "byteOffset": 288,
      "componentType": 5126,
      "count": 24,
      "max": [
        0.0,
        -0.0,
        1.0
      ],
      "min": [
        0.0,
        -0.0,
        1.0
      ],
      "type": "VEC3"
    },
    {
      "bufferView": 1,
      "componentType": 5126,
      "count": 24,
      "max": [
        0.625,
        0.5768359899520874
      ],
      "min": [
        0.375,
        0.1731639951467514
      ],
      "type": "VEC2"
    },
    {
      "bufferView": 0,
      "componentType": 5125,
      "count": 36,
      "type": "SCALAR"
    },
    {
      "bufferView": 2,
      "byteOffset": 576,
      "componentType": 5126,
      "count": 8,
      "max": [
        1475.5906982421875,
        935.8102416992188,
        452.5867004394531
      ],
      "min": [
        -1475.22998046875,
        681.9295043945313,
        452.5867004394531
      ],
      "type": "VEC3"
    },
    {
      "bufferView": 2,
      "byteOffset": 672,
      "componentType": 5126,
      "count": 8,
      "max": [
        0.0,
        -0.0,
        -1.0
      ],
      "min": [
        0.0,
        -0.0,
        -1.0
      ],
      "type": "VEC3"
    },
    {
      "bufferView": 1,
      "byteOffset": 192,
      "componentType": 5126,
      "count": 8,
      "max": [
        0.26388901472091675,
        0.25
      ],
      "min": [
        0.23611100018024445,
        0.25
      ],
      "type": "VEC2"
    },
    {
      "bufferView": 0,
      "byteOffset": 144,
      "componentType": 5125,
      "count": 12,
      "type": "SCALAR"
    },
    {
      "bufferView": 2,
      "byteOffset": 768,
      "componentType": 5126,
      "count": 121,
      "max": [
        785.4993286132813,
        2547.86669921875,
        355.4354248046875
      ],
      "min": [
        -785.4993286132813,
        -935.25634765625,
        355.4354248046875
      ],
      "type": "VEC3"
    },
    {
      "bufferView": 2,
      "byteOffset": 2220,
      "componentType": 5126,
      "count": 121,
      "max": [
        0.0,
        -0.0,
        -1.0
      ],
      "min": [
        0.0,
        -0.0,
        -1.0
      ],
      "type": "VEC3"
    },
    {
      "bufferView": 1,
      "byteOffset": 256,
      "componentType": 5126,
      "count": 121,
      "max": [
        0.8844469785690308,
        0.9980080127716064
      ],
      "min": [
        0.001765000051818788,
        0.0019920000340789557
      ],
      "type": "VEC2"
    },
    {
      "bufferView": 0,
      "byteOffset": 192,
      "componentType": 5125,
      "count": 600,
      "type": "SCALAR"
    },
    {
      "bufferView": 2,
      "byteOffset": 3672,
      "componentType": 5126,
      "count": 2304,
      "max": [
        1750.42333984375,
        2205.22509765625,
        -112.04954528808594
      ],
      "min": [
        -1727.03125,
        -549.41748046875,
        -170.49549865722656
      ],
      "type": "VEC3"
    },
    {
      "bufferView": 2,
      "byteOffset": 31320,
      "componentType": 5126,
      "count": 2304,
      "max": [
        1.0,
        1.0,
        1.0
      ],
      "min": [
        -1.0,
        -1.0,
        -1.0
      ],
      "type": "VEC3"
    },
    {
      "bufferView": 1,
      "byteOffset": 1224,
      "componentType": 5126,
      "count": 2304,
      "max": [
        0.9474239945411682,
        0.9980080127716064
      ],
      "min": [
        0.0018909999635070562,
        0.0019920000340789557
      ],
      "type": "VEC2"
    },
    {
      "bufferView": 0,
      "byteOffset": 2592,
      "componentType": 5125,
      "count": 3456,
      "type": "SCALAR"
    },
    {
      "bufferView": 2,
      "byteOffset": 58968,
      "componentType": 5126,
      "count": 276,
      "max": [
        -771.283935546875,
        2571.00927734375,
        452.5867004394531
      ],
      "min": [
        -1985.773681640625,
        -916.2570190429688,
        -193.4704132080078
      ],
      "type": "VEC3"
    },
    {
      "bufferView": 2,
      "byteOffset": 62280,
      "componentType": 5126,
      "count": 276,
      "max": [
        1.0,
        1.0,
        1.0
      ],
      "min": [
        -1.0,
        -1.0,
        -1.0
      ],
      "type": "VEC3"
    },
    {
      "bufferView": 1,
      "byteOffset": 19656,
      "componentType": 5126,
      "count": 276,
      "max": [
        0.9526270031929016,
        0.9980080127716064
      ],
      "min": [
        0.00190100003965199,
        0.0019920000340789557
      ],
      "type": "VEC2"
    },
    {
      "bufferView": 0,
      "byteOffset": 16416,
      "componentType": 5125,
      "count": 558,
      "type": "SCALAR"
    },
    {
      "bufferView": 2,
      "byteOffset": 65592,
      "componentType": 5126,
      "count": 296,
      "max": [
        1986.13427734375,
        2576.081298828125,
        452.5867004394531
      ],
      "min": [
        771.6446533203125,
        -913.9854125976563,
        -193.4704132080078
      ],
      "type": "VEC3"
    },
    {
      "bufferView": 2,
      "byteOffset": 69144,
      "componentType": 5126,
      "count": 296,
      "max": [
        1.0,
        1.0,
        1.0
      ],
      "min": [
        -1.0,
        -1.0,
        -1.0
      ],
      "type": "VEC3"
    },
    {
      "bufferView": 1,
      "byteOffset": 21864,
      "componentType": 5126,
      "count": 296,
      "max": [
        0.9526739716529846,
        0.9980080127716064
      ],
      "min": [
        0.0019020000472664833,
        0.0019920000340789557
      ],
      "type": "VEC2"
    },
    {
      "bufferView": 0,
      "byteOffset": 18648,
      "componentType": 5125,
      "count": 558,
      "type": "SCALAR"
    },
    {
      "bufferView": 2,
      "byteOffset": 72696,
      "componentType": 5126,
      "count": 240,
      "max": [
        811.2237548828125,
        2493.732177734375,
        368.7467956542969
      ],
      "min": [
        -809.072021484375,
        -854.7855834960938,
        -190.03399658203125
      ],
      "type": "VEC3"
    },
    {
      "bufferView": 2,
      "byteOffset": 75576,
      "componentType": 5126,
      "count": 240,
      "max": [
        1.0,
        1.0,
        0.0
      ],
      "min": [
        -1.0,
        -1.0,
        -1.0
      ],
      "type": "VEC3"
    },
    {
      "bufferView": 1,
      "byteOffset": 24232,
      "componentType": 5126,
      "count": 240,
      "max": [
        0.9817050099372864,
        0.9980080127716064
      ],
      "min": [
        0.001959000015631318,
        0.0019920000340789557
      ],
      "type": "VEC2"
    },
    {
      "bufferView": 0,
      "byteOffset": 20880,
      "componentType": 5125,
      "count": 564,
      "type": "SCALAR"
    },
    {
      "bufferView": 2,
      "byteOffset": 78456,
      "componentType": 5126,
      "count": 12,
      "max": [
        2005.176025390625,
        2560.579833984375,
        -169.37649536132813
      ],
      "min": [
        -2001.377197265625,
        -908.1151123046875,
        -169.37649536132813
      ],
      "type": "VEC3"
    },
    {
      "bufferView": 2,
      "byteOffset": 78600,
      "componentType": 5126,
      "count": 12,
      "max": [
        0.0,
        -0.0,
        1.0
      ],
      "min": [
        0.0,
        -0.0,
        1.0
      ],
      "type": "VEC3"
    },
    {
      "bufferView": 1,
      "byteOffset": 26152,
      "componentType": 5126,
      "count": 12,
      "max": [
        0.7696719765663147,
        0.9980080127716064
      ],
      "min": [
        0.0015360000543296337,
        0.0019920000340789557
      ],
      "type": "VEC2"
    },
    {
      "bufferView": 0,
      "byteOffset": 23136,
      "componentType": 5125,
      "count": 30,
      "type": "SCALAR"
    },
    {
      "bufferView": 2,
      "byteOffset": 78744,
      "componentType": 5126,
      "count": 2640,
      "max": [
        1939.0972900390625,
        2369.6533203125,
        362.77606201171875
      ],
      "min": [
        -1946.428955078125,
        -710.556396484375,
        113.64469909667969
      ],
      "type": "VEC3"
    },
    {
      "bufferView": 2,
      "byteOffset": 110424,
      "componentType": 5126,
      "count": 2640,
      "max": [
        1.0,
        1.0,
        1.0
      ],
      "min": [
        -1.0,
        -1.0,
        -1.0
      ],
      "type": "VEC3"
    },
    {
      "bufferView": 1,
      "byteOffset": 26248,
      "componentType": 5126,
      "count": 2640,
      "max": [
        0.9980080127716064,
        0.985634982585907
      ],
      "min": [
        0.0019920000340789557,
        0.001967000076547265
      ],
      "type": "VEC2"
    },
    {
      "bufferView": 0,
      "byteOffset": 23256,
      "componentType": 5125,
      "count": 4968,
      "type": "SCALAR"
    },
    {
      "bufferView": 2,
      "byteOffset": 142104,
      "componentType": 5126,
      "count": 204,
      "max": [
        791.7486572265625,
        2154.349365234375,
        357.5535888671875
      ],
      "min": [
        -791.7486572265625,
        -519.109375,
        303.54425048828125
      ],
      "type": "VEC3"
    },
    {
      "bufferView": 2,
      "byteOffset": 144552,
      "componentType": 5126,
      "count": 204,
      "max": [
        1.0,
        1.0,
        1.0
      ],
      "min": [
        -1.0,
        -1.0,
        -1.0
      ],
      "type": "VEC3"
    },
    {
      "bufferView": 1,
      "byteOffset": 47368,
      "componentType": 5126,
      "count": 204,
      "max": [
        0.9980080127716064,
        0.7973549962043762
      ],
      "min": [
        0.0019920000340789557,
        0.0015920000150799751
      ],
      "type": "VEC2"
    },
    {
      "bufferView": 0,
      "byteOffset": 43128,
      "componentType": 5125,
      "count": 378,
      "type": "SCALAR"
    }
  ],
  "asset": {
    "extras": {
      "author": "lazae (https://sketchfab.com/lazae)",
      "license": "SKETCHFAB Standard (https://sketchfab.com/licenses)",
      "source": "https://sketchfab.com/3d-models/vr-art-gallery-el5-e3bda3a7086c49f0a84948fd6808bcf4",
      "title": "VR Art Gallery - EL5"
    },
    "generator": "Sketchfab-12.64.0",
    "version": "2.0"
  },
  "bufferViews": [
    {
      "buffer": 0,
      "byteLength": 44640,
      "name": "floatBufferViews",
      "target": 34963
    },
    {
      "buffer": 0,
      "byteLength": 49000,
      "byteOffset": 44640,
      "byteStride": 8,
      "name": "floatBufferViews",
      "target": 34962
    },
    {
      "buffer": 0,
      "byteLength": 147000,
      "byteOffset": 93640,
      "byteStride": 12,
      "name": "floatBufferViews",
      "target": 34962
    }
  ],
  "buffers": [
    {
      "byteLength": 240640,
      "uri": "scene.bin"
    }
  ],
  "images": [
    {
      "uri": "textures/lambert37SG_baseColor.jpeg"
    },
    {
      "uri": "textures/lambert38SG_baseColor.jpeg"
    },
    {
      "uri": "textures/lambert39SG_baseColor.jpeg"
    },
    {
      "uri": "textures/lambert40SG_baseColor.jpeg"
    },
    {
      "uri": "textures/lambert41SG_baseColor.jpeg"
    },
    {
      "uri": "textures/lambert42SG_baseColor.jpeg"
    },
    {
      "uri": "textures/lambert43SG_baseColor.jpeg"
    },
    {
      "uri": "textures/lambert44SG_baseColor.jpeg"
    }
  ],
  "materials": [
    {
      "doubleSided": true,
      "emissiveFactor": [
        1.0,
        1.0,
        1.0
      ],
      "name": "lambert35SG",
      "pbrMetallicRoughness": {
        "metallicFactor": 0.0,
        "roughnessFactor": 0.6
      }
    },
    {
      "alphaMode": "BLEND",
      "doubleSided": true,
      "name": "lambert36SG",
      "pbrMetallicRoughness": {
        "baseColorFactor": [
          1.0,
          1.0,
          1.0,
          0.11698693585826166
        ],
        "metallicFactor": 0.0,
        "roughnessFactor": 0.6
      }
    },
    {
      "name": "lambert37SG",
      "pbrMetallicRoughness": {
        "baseColorTexture": {
          "index": 0
        },
        "metallicFactor": 0.4083162472286019,
        "roughnessFactor": 0.6
      }
    },
    {
      "name": "lambert38SG",
      "pbrMetallicRoughness": {
        "baseColorTexture": {
          "index": 1
        },
        "metallicFactor": 0.0,
        "roughnessFactor": 0.6
      }
    },
    {
      "name": "lambert39SG",
      "pbrMetallicRoughness": {
        "baseColorTexture": {
          "index": 2
        },
        "metallicFactor": 0.0,
        "roughnessFactor": 0.6
      }
    },
    {
      "doubleSided": true,
      "name": "lambert40SG",
      "pbrMetallicRoughness": {
        "baseColorTexture": {
          "index": 3
        },
        "metallicFactor": 0.28692903415762677,
        "roughnessFactor": 0.5236340996460283
      }
    },
    {
      "doubleSided": true,
      "name": "lambert41SG",
      "pbrMetallicRoughness": {
        "baseColorTexture": {
          "index": 4
        },
        "metallicFactor": 0.19588862435439547,
        "roughnessFactor": 0.6328825914099059
      }
    },
    {
      "doubleSided": true,
      "name": "lambert42SG",
      "pbrMetallicRoughness": {
        "baseColorTexture": {
          "index": 5
        },
        "metallicFactor": 0.0,
        "roughnessFactor": 0.6
      }
    },
    {
      "doubleSided": true,
      "name": "lambert43SG",
      "pbrMetallicRoughness": {
        "baseColorTexture": {
          "index": 6
        },
        "metallicFactor": 0.0,
        "roughnessFactor": 0.6
      }
    },
    {
      "name": "lambert44SG",
      "pbrMetallicRoughness": {
        "baseColorTexture": {
          "index": 7
        },
        "metallicFactor": 0.0,
        "roughnessFactor": 0.6
      }
    }
  ],
  "meshes": [
    {
      "name": "Object_0",
      "primitives": [
        {
          "attributes": {
            "NORMAL": 1,
            "POSITION": 0,
            "TEXCOORD_0": 2
          },
          "indices": 3,
          "material": 0,
          "mode": 4
        }
      ]
    },
    {
      "name": "Object_1",
      "primitives": [
        {
          "attributes": {
            "NORMAL": 5,
            "POSITION": 4,
            "TEXCOORD_0": 6
          },
          "indices": 7,
          "material": 1,
          "mode": 4
        }
      ]
    },
    {
      "name": "Object_2",
      "primitives": [
        {
          "attributes": {
            "NORMAL": 9,
            "POSITION": 8,
            "TEXCOORD_0": 10
          },
          "indices": 11,
          "material": 4,
          "mode": 4
        }
      ]
    },
    {
      "name": "Object_3",
      "primitives": [
        {
          "attributes": {
            "NORMAL": 13,
            "POSITION": 12,
            "TEXCOORD_0": 14
          },
          "indices": 15,
          "material": 6,
          "mode": 4
        }
      ]
    },
    {
      "name": "Object_4",
      "primitives": [
        {
          "attributes": {
            "NORMAL": 17,
            "POSITION": 16,
            "TEXCOORD_0": 18
          },
          "indices": 19,
          "material": 2,
          "mode": 4
        }
      ]
    },
    {
      "name": "Object_5",
      "primitives": [
        {
          "attributes": {
            "NORMAL": 21,
            "POSITION": 20,
            "TEXCOORD_0": 22
          },
          "indices": 23,
          "material": 3,
          "mode": 4
        }
      ]
    },
    {
      "name": "Object_6",
      "primitives": [
        {
          "attributes": {
            "NORMAL": 25,
            "POSITION": 24,
            "TEXCOORD_0": 26
          },
          "indices": 27,
          "material": 7,
          "mode": 4
        }
      ]
    },
    {
      "name": "Object_7",
      "primitives": [
        {
          "attributes": {
            "NORMAL": 29,
            "POSITION": 28,
            "TEXCOORD_0": 30
          },
          "indices": 31,
          "material": 5,
          "mode": 4
        }
      ]
    },
    {
      "name": "Object_8",
      "primitives": [
        {
          "attributes": {
            "NORMAL": 33,
            "POSITION": 32,
            "TEXCOORD_0": 34
          },
          "indices": 35,
          "material": 8,
          "mode": 4
        }
      ]
    },
    {
      "name": "Object_9",
      "primitives": [
        {
          "attributes": {
            "NORMAL": 37,
            "POSITION": 36,
            "TEXCOORD_0": 38
          },
          "indices": 39,
          "material": 9,
          "mode": 4
        }
      ]
    }
  ],
  "nodes": [
    {
      "children": [
        1
      ],
      "matrix": [
        1.0,
        0.0,
        0.0,
        0.0,
        0.0,
        2.220446049250313e-16,
        -1.0,
        0.0,
        0.0,
        1.0,
        2.220446049250313e-16,
        0.0,
        0.0,
        0.0,
        0.0,
        1.0
      ],
      "name": "Sketchfab_model"
    },
    {
      "children": [
        2,
        3,
        4,
        5,
        6,
        7,
        8,
        9,
        10,
        11
      ],
      "name": "a4f69aa2a8c94882bbd97a965d75c3a7.obj.cleaner.materialmerger.gles"
    },
    {
      "mesh": 0,
      "name": "Object_2"
    },
    {
      "mesh": 1,
      "name": "Object_3"
    },
    {
      "mesh": 2,
      "name": "Object_4"
    },
    {
      "mesh": 3,
      "name": "Object_5"
    },
    {
      "mesh": 4,
      "name": "Object_6"
    },
    {
      "mesh": 5,
      "name": "Object_7"
    },
    {
      "mesh": 6,
      "name": "Object_8"
    },
    {
      "mesh": 7,
      "name": "Object_9"
    },
    {
      "mesh": 8,
      "name": "Object_10"
    },
    {
      "mesh": 9,
      "name": "Object_11"
    }
  ],
  "samplers": [
    {
      "magFilter": 9729,
      "minFilter": 9987,
      "wrapS": 10497,
      "wrapT": 10497
    }
  ],
  "scene": 0,
  "scenes": [
    {
      "name": "Sketchfab_Scene",
      "nodes": [
        0
      ]
    }
  ],
  "textures": [
    {
      "sampler": 0,
      "source": 0
    },
    {
      "sampler": 0,
      "source": 1
    },
    {
      "sampler": 0,
      "source": 2
    },
    {
      "sampler": 0,
      "source": 3
    },
    {
      "sampler": 0,
      "source": 4
    },
    {
      "sampler": 0,
      "source": 5
    },
    {
      "sampler": 0,
      "source": 6
    },
    {
      "sampler": 0,
      "source": 7
    }
  ]
}
