{
    "asset" : {
        "generator" : "Khronos glTF Blender I/O v1.7.33",
        "version" : "2.0"
    },
    "scene" : 0,
    "scenes" : [
        {
            "name" : "Scene",
            "nodes" : [
                0,
                9
            ]
        }
    ],
    "nodes" : [
        {
            "mesh" : 0,
            "name" : "Cube"
        },
        {
            "mesh" : 1,
            "name" : "Geometry_Celing"
        },
        {
            "mesh" : 2,
            "name" : "Geometry_Chairs"
        },
        {
            "mesh" : 3,
            "name" : "Geometry_Floor"
        },
        {
            "mesh" : 4,
            "name" : "Geometry_HangingLights"
        },
        {
            "mesh" : 5,
            "name" : "Geometry_InsideWalls"
        },
        {
            "mesh" : 6,
            "name" : "Geometry_LeftWall"
        },
        {
            "mesh" : 7,
            "name" : "Geometry_RightWall"
        },
        {
            "mesh" : 8,
            "name" : "Geometry_WoodenTopDeco"
        },
        {
            "children" : [
                1,
                2,
                3,
                4,
                5,
                6,
                7,
                8
            ],
            "name" : "ShowcaseRoom4",
            "rotation" : [
                0.7071068286895752,
                0,
                0,
                0.7071067094802856
            ],
            "scale" : [
                0.009999999776482582,
                0.009999999776482582,
                0.009999999776482582
            ]
        }
    ],
    "materials" : [
        {
            "doubleSided" : true,
            "name" : "Material",
            "pbrMetallicRoughness" : {
                "baseColorFactor" : [
                    0.800000011920929,
                    0.800000011920929,
                    0.800000011920929,
                    1
                ],
                "metallicFactor" : 0,
                "roughnessFactor" : 0.4000000059604645
            }
        },
        {
            "doubleSided" : true,
            "name" : "baked_CelingShape_effectsResult",
            "pbrMetallicRoughness" : {
                "baseColorTexture" : {
                    "index" : 0
                },
                "metallicFactor" : 0,
                "roughnessFactor" : 0.5527864098548889
            }
        },
        {
            "doubleSided" : true,
            "name" : "baked_ChairsShape_effectsResult",
            "pbrMetallicRoughness" : {
                "baseColorTexture" : {
                    "index" : 1
                },
                "metallicFactor" : 0,
                "roughnessFactor" : 0.5527864098548889
            }
        },
        {
            "doubleSided" : true,
            "name" : "baked_FloorShape_effectsResult",
            "pbrMetallicRoughness" : {
                "baseColorTexture" : {
                    "index" : 2
                },
                "metallicFactor" : 0,
                "roughnessFactor" : 0.5527864098548889
            }
        },
        {
            "doubleSided" : true,
            "name" : "baked_HangingLightsShape_effectsResult",
            "pbrMetallicRoughness" : {
                "baseColorTexture" : {
                    "index" : 3
                },
                "metallicFactor" : 0,
                "roughnessFactor" : 0.5527864098548889
            }
        },
        {
            "doubleSided" : true,
            "name" : "baked_InsideWallsShape_effectsResult",
            "pbrMetallicRoughness" : {
                "baseColorTexture" : {
                    "index" : 4
                },
                "metallicFactor" : 0,
                "roughnessFactor" : 0.5527864098548889
            }
        },
        {
            "doubleSided" : true,
            "name" : "baked_LeftWallShape_effectsResult",
            "pbrMetallicRoughness" : {
                "baseColorTexture" : {
                    "index" : 5
                },
                "metallicFactor" : 0,
                "roughnessFactor" : 0.5527864098548889
            }
        },
        {
            "doubleSided" : true,
            "name" : "baked_RightWallShape_effectsResult",
            "pbrMetallicRoughness" : {
                "baseColorTexture" : {
                    "index" : 6
                },
                "metallicFactor" : 0,
                "roughnessFactor" : 0.5527864098548889
            }
        },
        {
            "doubleSided" : true,
            "name" : "baked_WoodenTopDecoShape_effectsResult",
            "pbrMetallicRoughness" : {
                "baseColorTexture" : {
                    "index" : 7
                },
                "metallicFactor" : 0,
                "roughnessFactor" : 0.5527864098548889
            }
        }
    ],
    "meshes" : [
        {
            "name" : "Cube",
            "primitives" : [
                {
                    "attributes" : {
                        "POSITION" : 0,
                        "NORMAL" : 1,
                        "TEXCOORD_0" : 2
                    },
                    "indices" : 3,
                    "material" : 0
                }
            ]
        },
        {
            "name" : "Scene",
            "primitives" : [
                {
                    "attributes" : {
                        "POSITION" : 4,
                        "NORMAL" : 5,
                        "TEXCOORD_0" : 6
                    },
                    "indices" : 7,
                    "material" : 1
                }
            ]
        },
        {
            "name" : "Scene.001",
            "primitives" : [
                {
                    "attributes" : {
                        "POSITION" : 8,
                        "NORMAL" : 9,
                        "TEXCOORD_0" : 10
                    },
                    "indices" : 11,
                    "material" : 2
                }
            ]
        },
        {
            "name" : "Scene.002",
            "primitives" : [
                {
                    "attributes" : {
                        "POSITION" : 12,
                        "NORMAL" : 13,
                        "TEXCOORD_0" : 14
                    },
                    "indices" : 15,
                    "material" : 3
                }
            ]
        },
        {
            "name" : "Scene.003",
            "primitives" : [
                {
                    "attributes" : {
                        "POSITION" : 16,
                        "NORMAL" : 17,
                        "TEXCOORD_0" : 18
                    },
                    "indices" : 19,
                    "material" : 4
                }
            ]
        },
        {
            "name" : "Scene.004",
            "primitives" : [
                {
                    "attributes" : {
                        "POSITION" : 20,
                        "NORMAL" : 21,
                        "TEXCOORD_0" : 22
                    },
                    "indices" : 23,
                    "material" : 5
                }
            ]
        },
        {
            "name" : "Scene.005",
            "primitives" : [
                {
                    "attributes" : {
                        "POSITION" : 24,
                        "NORMAL" : 25,
                        "TEXCOORD_0" : 26
                    },
                    "indices" : 27,
                    "material" : 6
                }
            ]
        },
        {
            "name" : "Scene.006",
            "primitives" : [
                {
                    "attributes" : {
                        "POSITION" : 28,
                        "NORMAL" : 29,
                        "TEXCOORD_0" : 30
                    },
                    "indices" : 31,
                    "material" : 7
                }
            ]
        },
        {
            "name" : "Scene.007",
            "primitives" : [
                {
                    "attributes" : {
                        "POSITION" : 32,
                        "NORMAL" : 33,
                        "TEXCOORD_0" : 34
                    },
                    "indices" : 35,
                    "material" : 8
                }
            ]
        }
    ],
    "textures" : [
        {
            "sampler" : 0,
            "source" : 0
        },
        {
            "sampler" : 0,
            "source" : 1
        },
        {
            "sampler" : 0,
            "source" : 2
        },
        {
            "sampler" : 0,
            "source" : 3
        },
        {
            "sampler" : 0,
            "source" : 4
        },
        {
            "sampler" : 0,
            "source" : 5
        },
        {
            "sampler" : 0,
            "source" : 6
        },
        {
            "sampler" : 0,
            "source" : 7
        }
    ],
    "images" : [
        {
            "mimeType" : "image/jpeg",
            "name" : "baked-CelingShape.effectsResult",
            "uri" : "baked-CelingShape_effectsResult.jpg"
        },
        {
            "mimeType" : "image/jpeg",
            "name" : "baked-ChairsShape.effectsResult",
            "uri" : "baked-ChairsShape_effectsResult.jpg"
        },
        {
            "mimeType" : "image/jpeg",
            "name" : "baked-FloorShape.effectsResult",
            "uri" : "baked-FloorShape_effectsResult.jpg"
        },
        {
            "mimeType" : "image/jpeg",
            "name" : "baked-HangingLightsShape.effectsResult",
            "uri" : "baked-HangingLightsShape_effectsResult.jpg"
        },
        {
            "mimeType" : "image/jpeg",
            "name" : "baked-InsideWallsShape.effectsResult",
            "uri" : "baked-InsideWallsShape_effectsResult.jpg"
        },
        {
            "mimeType" : "image/jpeg",
            "name" : "baked-LeftWallShape.effectsResult",
            "uri" : "baked-LeftWallShape_effectsResult.jpg"
        },
        {
            "mimeType" : "image/jpeg",
            "name" : "baked-RightWallShape.effectsResult",
            "uri" : "baked-RightWallShape_effectsResult.jpg"
        },
        {
            "mimeType" : "image/jpeg",
            "name" : "baked-WoodenTopDecoShape.effectsResult",
            "uri" : "baked-WoodenTopDecoShape_effectsResult.jpg"
        }
    ],
    "accessors" : [
        {
            "bufferView" : 0,
            "componentType" : 5126,
            "count" : 24,
            "max" : [
                1,
                1,
                1
            ],
            "min" : [
                -1,
                -1,
                -1
            ],
            "type" : "VEC3"
        },
        {
            "bufferView" : 1,
            "componentType" : 5126,
            "count" : 24,
            "type" : "VEC3"
        },
        {
            "bufferView" : 2,
            "componentType" : 5126,
            "count" : 24,
            "type" : "VEC2"
        },
        {
            "bufferView" : 3,
            "componentType" : 5123,
            "count" : 36,
            "type" : "SCALAR"
        },
        {
            "bufferView" : 4,
            "componentType" : 5126,
            "count" : 121,
            "max" : [
                78549.9296875,
                93525.6328125,
                -35543.54296875
            ],
            "min" : [
                -78549.9296875,
                -254786.671875,
                -35543.54296875
            ],
            "type" : "VEC3"
        },
        {
            "bufferView" : 5,
            "componentType" : 5126,
            "count" : 121,
            "type" : "VEC3"
        },
        {
            "bufferView" : 6,
            "componentType" : 5126,
            "count" : 121,
            "type" : "VEC2"
        },
        {
            "bufferView" : 7,
            "componentType" : 5123,
            "count" : 600,
            "type" : "SCALAR"
        },
        {
            "bufferView" : 8,
            "componentType" : 5126,
            "count" : 2304,
            "max" : [
                175042.328125,
                54941.75,
                17049.55078125
            ],
            "min" : [
                -172703.125,
                -220522.515625,
                11204.9541015625
            ],
            "type" : "VEC3"
        },
        {
            "bufferView" : 9,
            "componentType" : 5126,
            "count" : 2304,
            "type" : "VEC3"
        },
        {
            "bufferView" : 10,
            "componentType" : 5126,
            "count" : 2304,
            "type" : "VEC2"
        },
        {
            "bufferView" : 11,
            "componentType" : 5123,
            "count" : 3456,
            "type" : "SCALAR"
        },
        {
            "bufferView" : 12,
            "componentType" : 5126,
            "count" : 12,
            "max" : [
                200517.609375,
                90811.5078125,
                16937.650390625
            ],
            "min" : [
                -200137.71875,
                -256057.984375,
                16937.650390625
            ],
            "type" : "VEC3"
        },
        {
            "bufferView" : 13,
            "componentType" : 5126,
            "count" : 12,
            "type" : "VEC3"
        },
        {
            "bufferView" : 14,
            "componentType" : 5126,
            "count" : 12,
            "type" : "VEC2"
        },
        {
            "bufferView" : 15,
            "componentType" : 5123,
            "count" : 30,
            "type" : "SCALAR"
        },
        {
            "bufferView" : 16,
            "componentType" : 5126,
            "count" : 2640,
            "max" : [
                193909.734375,
                71055.640625,
                -11364.4697265625
            ],
            "min" : [
                -194642.890625,
                -236965.328125,
                -36277.60546875
            ],
            "type" : "VEC3"
        },
        {
            "bufferView" : 17,
            "componentType" : 5126,
            "count" : 2640,
            "type" : "VEC3"
        },
        {
            "bufferView" : 18,
            "componentType" : 5126,
            "count" : 2640,
            "type" : "VEC2"
        },
        {
            "bufferView" : 19,
            "componentType" : 5123,
            "count" : 4968,
            "type" : "SCALAR"
        },
        {
            "bufferView" : 20,
            "componentType" : 5126,
            "count" : 244,
            "max" : [
                81122.375,
                85478.5546875,
                19003.400390625
            ],
            "min" : [
                -80907.203125,
                -249373.21875,
                -36874.6796875
            ],
            "type" : "VEC3"
        },
        {
            "bufferView" : 21,
            "componentType" : 5126,
            "count" : 244,
            "type" : "VEC3"
        },
        {
            "bufferView" : 22,
            "componentType" : 5126,
            "count" : 244,
            "type" : "VEC2"
        },
        {
            "bufferView" : 23,
            "componentType" : 5123,
            "count" : 564,
            "type" : "SCALAR"
        },
        {
            "bufferView" : 24,
            "componentType" : 5126,
            "count" : 295,
            "max" : [
                198613.421875,
                91398.5390625,
                19347.041015625
            ],
            "min" : [
                77164.46875,
                -257608.125,
                -45258.671875
            ],
            "type" : "VEC3"
        },
        {
            "bufferView" : 25,
            "componentType" : 5126,
            "count" : 295,
            "type" : "VEC3"
        },
        {
            "bufferView" : 26,
            "componentType" : 5126,
            "count" : 295,
            "type" : "VEC2"
        },
        {
            "bufferView" : 27,
            "componentType" : 5123,
            "count" : 558,
            "type" : "SCALAR"
        },
        {
            "bufferView" : 28,
            "componentType" : 5126,
            "count" : 282,
            "max" : [
                -77128.390625,
                91625.703125,
                19347.041015625
            ],
            "min" : [
                -198577.375,
                -257100.921875,
                -45258.671875
            ],
            "type" : "VEC3"
        },
        {
            "bufferView" : 29,
            "componentType" : 5126,
            "count" : 282,
            "type" : "VEC3"
        },
        {
            "bufferView" : 30,
            "componentType" : 5126,
            "count" : 282,
            "type" : "VEC2"
        },
        {
            "bufferView" : 31,
            "componentType" : 5123,
            "count" : 558,
            "type" : "SCALAR"
        },
        {
            "bufferView" : 32,
            "componentType" : 5126,
            "count" : 228,
            "max" : [
                79174.8671875,
                51910.9375,
                -30354.42578125
            ],
            "min" : [
                -79174.8671875,
                -215434.9375,
                -35755.359375
            ],
            "type" : "VEC3"
        },
        {
            "bufferView" : 33,
            "componentType" : 5126,
            "count" : 228,
            "type" : "VEC3"
        },
        {
            "bufferView" : 34,
            "componentType" : 5126,
            "count" : 228,
            "type" : "VEC2"
        },
        {
            "bufferView" : 35,
            "componentType" : 5123,
            "count" : 378,
            "type" : "SCALAR"
        }
    ],
    "bufferViews" : [
        {
            "buffer" : 0,
            "byteLength" : 288,
            "byteOffset" : 0
        },
        {
            "buffer" : 0,
            "byteLength" : 288,
            "byteOffset" : 288
        },
        {
            "buffer" : 0,
            "byteLength" : 192,
            "byteOffset" : 576
        },
        {
            "buffer" : 0,
            "byteLength" : 72,
            "byteOffset" : 768
        },
        {
            "buffer" : 0,
            "byteLength" : 1452,
            "byteOffset" : 840
        },
        {
            "buffer" : 0,
            "byteLength" : 1452,
            "byteOffset" : 2292
        },
        {
            "buffer" : 0,
            "byteLength" : 968,
            "byteOffset" : 3744
        },
        {
            "buffer" : 0,
            "byteLength" : 1200,
            "byteOffset" : 4712
        },
        {
            "buffer" : 0,
            "byteLength" : 27648,
            "byteOffset" : 5912
        },
        {
            "buffer" : 0,
            "byteLength" : 27648,
            "byteOffset" : 33560
        },
        {
            "buffer" : 0,
            "byteLength" : 18432,
            "byteOffset" : 61208
        },
        {
            "buffer" : 0,
            "byteLength" : 6912,
            "byteOffset" : 79640
        },
        {
            "buffer" : 0,
            "byteLength" : 144,
            "byteOffset" : 86552
        },
        {
            "buffer" : 0,
            "byteLength" : 144,
            "byteOffset" : 86696
        },
        {
            "buffer" : 0,
            "byteLength" : 96,
            "byteOffset" : 86840
        },
        {
            "buffer" : 0,
            "byteLength" : 60,
            "byteOffset" : 86936
        },
        {
            "buffer" : 0,
            "byteLength" : 31680,
            "byteOffset" : 86996
        },
        {
            "buffer" : 0,
            "byteLength" : 31680,
            "byteOffset" : 118676
        },
        {
            "buffer" : 0,
            "byteLength" : 21120,
            "byteOffset" : 150356
        },
        {
            "buffer" : 0,
            "byteLength" : 9936,
            "byteOffset" : 171476
        },
        {
            "buffer" : 0,
            "byteLength" : 2928,
            "byteOffset" : 181412
        },
        {
            "buffer" : 0,
            "byteLength" : 2928,
            "byteOffset" : 184340
        },
        {
            "buffer" : 0,
            "byteLength" : 1952,
            "byteOffset" : 187268
        },
        {
            "buffer" : 0,
            "byteLength" : 1128,
            "byteOffset" : 189220
        },
        {
            "buffer" : 0,
            "byteLength" : 3540,
            "byteOffset" : 190348
        },
        {
            "buffer" : 0,
            "byteLength" : 3540,
            "byteOffset" : 193888
        },
        {
            "buffer" : 0,
            "byteLength" : 2360,
            "byteOffset" : 197428
        },
        {
            "buffer" : 0,
            "byteLength" : 1116,
            "byteOffset" : 199788
        },
        {
            "buffer" : 0,
            "byteLength" : 3384,
            "byteOffset" : 200904
        },
        {
            "buffer" : 0,
            "byteLength" : 3384,
            "byteOffset" : 204288
        },
        {
            "buffer" : 0,
            "byteLength" : 2256,
            "byteOffset" : 207672
        },
        {
            "buffer" : 0,
            "byteLength" : 1116,
            "byteOffset" : 209928
        },
        {
            "buffer" : 0,
            "byteLength" : 2736,
            "byteOffset" : 211044
        },
        {
            "buffer" : 0,
            "byteLength" : 2736,
            "byteOffset" : 213780
        },
        {
            "buffer" : 0,
            "byteLength" : 1824,
            "byteOffset" : 216516
        },
        {
            "buffer" : 0,
            "byteLength" : 756,
            "byteOffset" : 218340
        }
    ],
    "samplers" : [
        {
            "magFilter" : 9729,
            "minFilter" : 9987
        }
    ],
    "buffers" : [
        {
            "byteLength" : 219096,
            "uri" : "test1.bin"
        }
    ]
}
